<?xml version="1.0" encoding="utf-8"?>
<!-- Generator: Adobe Illustrator 24.1.2, SVG Export Plug-In . SVG Version: 6.00 Build 0)  -->
<svg version="1.1" id="Layer_1" xmlns="http://www.w3.org/2000/svg" xmlns:xlink="http://www.w3.org/1999/xlink" x="0px" y="0px"
	 width="128px" height="128px" viewBox="0 0 128 128" style="enable-background:new 0 0 128 128;" xml:space="preserve">
<style type="text/css">
	.st0{fill:#B8BFCA;}
	.st1{fill:#627386;}
	.st2{fill:#FFFFFF;}
	.st3{fill:#D5DAE0;}
	.st4{fill:#F2F4F6;}
	.st5{fill:none;}
</style>
<g>
	<path class="st0" d="M43.3,89.3l-4.6-9.7l5.6-3.2l0,0c1.5-0.7,3.3-0.6,4.7,0.4c3.9,2.3,7.2,8.4,7.2,13.7c0,2.9-1,4.9-2.5,5.8l0,0
		l-5.6,3.2L43.3,89.3L43.3,89.3z"/>
	<path class="st1" d="M48.1,100.5c-0.1,0-0.2,0-0.3,0c-0.3-0.1-0.5-0.3-0.6-0.5l-4.8-10.1l0.9-0.4l-0.9,0.4l-4.6-9.7
		c-0.2-0.5,0-1,0.4-1.3l5.6-3.2c0,0,0.1,0,0.1-0.1c1.8-0.8,3.9-0.7,5.5,0.4c4.3,2.5,7.7,8.9,7.7,14.5c0,3.1-1,5.4-2.8,6.6l-0.1,0.1
		l-5.6,3.2C48.4,100.4,48.2,100.5,48.1,100.5z M44.2,88.9l4.3,9.2l4.6-2.6l0.1-0.1c1.3-0.7,2-2.5,2-4.9c0-4.9-3-10.7-6.7-12.8
		c-1.1-0.8-2.5-0.9-3.7-0.4c0,0-0.1,0-0.1,0.1L40,80L44.2,88.9L44.2,88.9z"/>
	<path class="st0" d="M14.4,72.6L9.8,63l5.6-3.2l0,0c1.5-0.7,3.3-0.6,4.7,0.4c3.9,2.3,7.1,8.4,7.1,13.7c0,2.9-1,4.9-2.5,5.8l0,0
		l-5.6,3.2L14.4,72.6L14.4,72.6z"/>
	<path class="st1" d="M19.2,83.8c-0.1,0-0.2,0-0.3,0c-0.3-0.1-0.5-0.3-0.6-0.5l-4.8-10.1l0,0l-4.6-9.7c-0.2-0.5,0-1,0.4-1.3l5.6-3.2
		c0,0,0.1,0,0.1-0.1c1.8-0.8,3.9-0.7,5.5,0.4c4.3,2.5,7.6,8.9,7.6,14.5c0,3.1-1,5.4-2.8,6.6l-0.1,0.1l-5.6,3.2
		C19.5,83.7,19.3,83.8,19.2,83.8z M15.3,72.2l4.3,9.2l4.6-2.6l0.1-0.1c1.3-0.7,2-2.5,2-4.9c0-4.9-3-10.7-6.6-12.8
		c-1.1-0.8-2.5-0.9-3.7-0.4c0,0-0.1,0-0.1,0.1l-4.7,2.7L15.3,72.2L15.3,72.2L15.3,72.2z"/>
	<path class="st2" d="M57.4,82.6l33.3-19.2l-50.3-29c-2.1-1-4.5-1-6.6,0L7.1,49.8c-1.8,1-1.8,2.8,0,3.8L57.4,82.6z"/>
	<path class="st1" d="M57.4,83.6c-0.2,0-0.3,0-0.5-0.1l-50.3-29c-1.5-0.6-2.3-2.4-1.6-3.9c0.3-0.7,0.9-1.3,1.6-1.6l26.7-15.4
		c2.4-1.2,5.2-1.2,7.6,0l50.3,29c0.5,0.3,0.6,0.9,0.4,1.4c-0.1,0.2-0.2,0.3-0.4,0.4L57.9,83.5C57.7,83.6,57.5,83.6,57.4,83.6z
		 M37.1,34.6c-1,0-1.9,0.2-2.8,0.7L7.6,50.6c-0.5,0.3-0.9,0.7-0.9,1s0.3,0.7,0.9,1l49.8,28.7l31.3-18.1l-48.8-28
		C39,34.8,38.1,34.5,37.1,34.6z"/>
	<path class="st3" d="M7.1,53.6l38.6,21.3L30.5,21.2L63.8,5.8V2l4.1,2.4l8.9,5.2C84.4,14,90.6,25.8,90.6,36v38.4L57.4,93.5l-50.3-29
		c-0.8-0.3-1.3-1.1-1.4-1.9V51.7C5.8,52.5,6.3,53.2,7.1,53.6z"/>
	<path class="st1" d="M57.4,94.5c-0.2,0-0.3,0-0.5-0.1l-50.3-29c-1.1-0.5-1.8-1.6-1.9-2.8V51.7c0-0.6,0.4-1,1-1s1,0.4,1,1
		c0,0.3,0.3,0.7,0.8,1L44,72.8L29.5,21.5c-0.1-0.5,0.1-1,0.5-1.2L62.8,5.1V2c0-0.6,0.4-1,1-1c0.2,0,0.3,0,0.5,0.1l13.1,7.5
		c7.9,4.6,14.3,16.8,14.3,27.2v38.4c0,0.4-0.2,0.7-0.5,0.9L57.9,94.4C57.7,94.5,57.5,94.5,57.4,94.5z M6.7,54.5v8.1
		c0,0.3,0.3,0.7,0.9,1l49.8,28.7l32.3-18.7V35.9c0-9.8-6-21.3-13.3-25.5L64.8,3.7v2c0,0.4-0.2,0.7-0.6,0.9L31.7,21.8l14.9,52.8
		c0.2,0.5-0.2,1.1-0.7,1.2c-0.3,0.1-0.5,0-0.8-0.1L6.7,54.5z"/>
	<path class="st4" d="M30.5,21.2L63.8,5.8V2l4.1,2.4l8.9,5.2c1.4,0.8,2.7,1.8,3.8,2.9l0,0c0.1,0.1,0.2,0.3,0.4,0.4
		c0.4,0.4,0.8,0.8,1.2,1.3c0.2,0.2,0.4,0.4,0.5,0.6c0.2,0.2,0.3,0.4,0.4,0.6c0.2,0.2,0.4,0.5,0.6,0.8c0.1,0.2,0.3,0.4,0.4,0.6
		c0.2,0.3,0.4,0.5,0.6,0.8c0.1,0.2,0.2,0.4,0.4,0.6c0.2,0.3,0.4,0.6,0.6,0.9c0,0.1,0.1,0.1,0.1,0.2l0,0c3,5.1,4.7,10.9,4.8,16.8v5.5
		l-33.2,19l-14-24.1l-9-1.3L30.5,21.2z"/>
	<path class="st1" d="M57.4,61.6c-0.4,0-0.7-0.2-0.9-0.5L42.8,37.4l-8.5-1.3c-0.4-0.1-0.7-0.3-0.8-0.7l-3.9-13.9
		c-0.1-0.5,0.1-1,0.5-1.2L62.8,5.1V2c0-0.6,0.4-1,1-1c0.2,0,0.3,0,0.5,0.1l13.1,7.5c1.5,0.9,2.8,1.9,4,3.1c0.1,0.1,0.2,0.2,0.3,0.3
		l0.1,0.1c0.4,0.4,0.8,0.9,1.2,1.3l0.2,0.2c0.1,0.2,0.3,0.3,0.4,0.5c0.1,0.1,0.2,0.3,0.3,0.4l0.3,0.3c0.2,0.2,0.3,0.4,0.5,0.6
		c0.1,0.1,0.2,0.3,0.3,0.4l0.1,0.2c0.2,0.3,0.4,0.6,0.6,0.9c0.1,0.1,0.2,0.3,0.3,0.4l0.1,0.2c0.2,0.3,0.4,0.6,0.6,0.9l0.1,0.2
		c0,0,0,0.1,0.1,0.1c3.1,5.2,4.8,11.1,4.9,17.2v5.5c0,0.4-0.2,0.7-0.5,0.9L57.9,61.5C57.7,61.6,57.5,61.6,57.4,61.6z M35.2,34.2
		l8.3,1.2c0.3,0,0.6,0.2,0.7,0.5l13.4,23.3l31.9-18.4v-4.9c-0.2-5.7-1.8-11.3-4.7-16.3v-0.1l-0.1-0.1c-0.2-0.3-0.4-0.6-0.5-0.9
		l-0.1-0.2c0,0-0.1-0.1-0.1-0.3c-0.2-0.3-0.4-0.5-0.5-0.8L83.3,17c-0.1-0.1-0.2-0.2-0.3-0.4c-0.1-0.2-0.3-0.4-0.5-0.6l-0.3-0.3
		c-0.1-0.1-0.2-0.2-0.3-0.4c-0.1-0.1-0.2-0.3-0.4-0.4l-0.2-0.2c-0.4-0.4-0.8-0.8-1.1-1.2L80,13.3c-0.1-0.1-0.1-0.1-0.2-0.2
		c-1.1-1.1-2.3-2-3.6-2.8L64.8,3.7v2c0,0.4-0.2,0.7-0.6,0.9L31.7,21.8L35.2,34.2z"/>
	<path class="st4" d="M7.1,53.6l23.4,13.5V21.2l13.1,7.5c7.6,4.4,13.8,21.7,13.8,31.8v22l0.2,10.8l-0.2,0.1l-50.3-29
		c-0.8-0.3-1.3-1.1-1.4-1.9V51.7C5.8,52.5,6.3,53.2,7.1,53.6z"/>
	<path class="st1" d="M57.4,94.5c-0.2,0-0.3,0-0.5-0.1l-50.3-29c-1.1-0.5-1.8-1.6-1.9-2.8V51.7c0-0.6,0.4-1,1-1s1,0.4,1,1
		c0,0.3,0.3,0.7,0.9,1l0,0l21.9,12.7V21.2c0-0.6,0.4-1,1-1c0.2,0,0.3,0,0.5,0.1l13,7.6c8.3,4.8,14.3,22.9,14.3,32.7v22l0.2,10.8
		c0,0.4-0.2,0.7-0.5,0.9l-0.2,0.1C57.7,94.5,57.5,94.5,57.4,94.5z M6.7,54.5v8.1c0,0.3,0.3,0.7,0.9,1l48.9,28.3l-0.2-9.3v-22
		c0-10.3-6.3-26.9-13.3-31L31.5,23v44.1c0,0.6-0.4,1-1,1c-0.2,0-0.3,0-0.5-0.1L6.7,54.5z"/>
	<path class="st2" d="M30.5,45.1V21.2l13.1,7.5c7.6,4.4,13.8,21.7,13.8,31.8L30.5,45.1z"/>
	<path class="st1" d="M57.4,61.6c-0.2,0-0.3,0-0.5-0.1L30,46c-0.3-0.2-0.5-0.5-0.5-0.9V21.2c0-0.6,0.4-1,1-1c0.2,0,0.3,0,0.5,0.1
		l13,7.6c8.3,4.8,14.3,22.9,14.3,32.7C58.3,61.2,57.9,61.6,57.4,61.6L57.4,61.6z M31.5,44.5l24.8,14.3c-0.6-10.3-6.6-25.4-13.2-29.2
		L31.5,23V44.5z"/>
	<polygon class="st3" points="30.5,45.1 30.5,21.2 35.6,23.9 35.6,47.8 	"/>
	<ellipse transform="matrix(0.9201 -0.3916 0.3916 0.9201 -27.3857 11.505)" class="st3" cx="14.5" cy="72.9" rx="6.2" ry="11"/>
	<path class="st1" d="M17.3,84.3c-1.2,0-2.3-0.4-3.3-1c-4.3-2.5-7.7-8.9-7.7-14.5c0-3.1,1.1-5.6,3-6.6c1.6-0.9,3.6-0.8,5.7,0.4
		c4.3,2.5,7.6,8.9,7.6,14.5c0,3.1-1.1,5.6-3,6.6C19,84.1,18.2,84.3,17.3,84.3z M11.7,63.5c-0.5,0-0.9,0.1-1.3,0.3
		c-1.3,0.7-2,2.5-2,4.9c0,4.9,3,10.7,6.7,12.8c1.1,0.8,2.5,0.9,3.7,0.4c1.3-0.7,2-2.5,2-4.9c0-4.9-3-10.7-6.6-12.8
		C13.3,63.8,12.5,63.5,11.7,63.5z"/>
	<ellipse transform="matrix(0.9201 -0.3916 0.3916 0.9201 -27.3006 11.5599)" class="st0" cx="14.7" cy="72.7" rx="1.9" ry="3.4"/>
	<path class="st0" d="M90.7,42.4c-0.2,0-0.3,0-0.5-0.1L63.3,26.7c-0.5-0.3-0.7-0.9-0.4-1.4s0.9-0.7,1.4-0.4c0,0,0,0,0.1,0l26.9,15.5
		c0.5,0.3,0.6,0.9,0.4,1.4C91.4,42.2,91,42.4,90.7,42.4L90.7,42.4z"/>
	<ellipse transform="matrix(0.9201 -0.3916 0.3916 0.9201 -31.5809 24.1356)" class="st3" cx="43.4" cy="89.5" rx="6.2" ry="11"/>
	<path class="st1" d="M46.2,100.9c-1.2,0-2.3-0.4-3.3-1l0,0c-4.3-2.5-7.7-8.9-7.7-14.5c0-3.1,1.1-5.6,3-6.6c1.6-0.9,3.6-0.8,5.7,0.4
		c4.3,2.5,7.7,8.9,7.7,14.5c0,3.1-1.1,5.6-3,6.6C47.9,100.7,47,100.9,46.2,100.9z M43.9,98.2c1.1,0.8,2.5,0.9,3.7,0.4
		c1.3-0.7,2-2.5,2-4.9c0-4.9-3-10.7-6.7-12.8c-1.1-0.8-2.5-0.9-3.7-0.4c-1.3,0.7-2,2.5-2,4.9C37.2,90.4,40.2,96.1,43.9,98.2
		L43.9,98.2z"/>
	<ellipse transform="matrix(0.9201 -0.3916 0.3916 0.9201 -31.5287 24.2132)" class="st0" cx="43.6" cy="89.4" rx="1.9" ry="3.4"/>
	<path class="st0" d="M35.6,48.8c-0.6,0-1-0.4-1-1V23.9c0-0.6,0.4-1,1-1s1,0.4,1,1v23.9C36.6,48.3,36.2,48.8,35.6,48.8z"/>
	<path class="st1" d="M57.4,61.6c-0.2,0-0.3,0-0.5-0.1L30,46c-0.3-0.2-0.5-0.5-0.5-0.9V21.2c0-0.6,0.4-1,1-1c0.2,0,0.3,0,0.5,0.1
		l13,7.6c8.3,4.8,14.3,22.9,14.3,32.7C58.3,61.2,57.9,61.6,57.4,61.6L57.4,61.6z M31.5,44.5l24.8,14.3c-0.6-10.3-6.6-25.4-13.2-29.2
		L31.5,23V44.5z"/>
	<path class="st0" d="M47.5,76.9C47.5,77,47.6,77,47.5,76.9l2.8,1.7c0.1,0.1,0.2,0,0.2,0c0-0.1,0-0.3-0.1-0.4l-4.9-8.4
		c-0.1-0.2-0.1-0.4,0-0.5l4.9-2.7c0.1-0.1,0.1-0.1,0.1-0.2s-0.1-0.3-0.2-0.4l-2.6-1.5h-0.1l-5.4,2.9l0,0c-0.1,0-0.1,0.2,0,0.4
		l0.1,0.1L47.5,76.9z"/>
	<path class="st0" d="M41.4,66.1c-0.1,0-0.2,0-0.3-0.2l-4.3-7.3c-0.1-0.1-0.1-0.2-0.1-0.3s0.1-0.2,0.2-0.1l2.6,1.5
		c0.1,0,0.1,0.1,0.1,0.1l3,5c0.1,0.2,0.1,0.4,0,0.5L41.4,66.1z"/>
	<path class="st0" d="M41.4,68.2c-0.1-0.1-0.2-0.2-0.3-0.2l-4.4,2.2c-0.1,0.1-0.1,0.1-0.1,0.2s0.1,0.3,0.2,0.4l2.6,1.5h0.1l3-1.6
		c0.1-0.1,0.1-0.3,0-0.5L41.4,68.2z"/>
	<path class="st0" d="M63.8,50.9c-0.6,0-1-0.4-1-1v-36c0-0.6,0.4-1,1-1c0.6,0,1,0.4,1,1V50C64.8,50.5,64.4,50.9,63.8,50.9z"/>
	<polygon class="st3" points="76.9,9.5 43.5,28.8 30.5,21.2 63.8,2 	"/>
	<path class="st1" d="M43.5,29.8c-0.2,0-0.3,0-0.5-0.1l-13-7.6c-0.5-0.3-0.6-0.9-0.4-1.4c0.1-0.2,0.2-0.3,0.4-0.4L63.3,1.1
		c0.3-0.2,0.7-0.2,1,0l13.1,7.5c0.5,0.3,0.6,0.9,0.4,1.4c-0.1,0.2-0.2,0.3-0.4,0.4L44,29.6C43.9,29.7,43.7,29.8,43.5,29.8z
		 M32.5,21.2l11.1,6.4L74.9,9.5L63.8,3.2L32.5,21.2z"/>
	<path class="st4" d="M95.5,18.7v63.4c0,5,3.1,10.9,6.8,13l19.9,11.5l-7.6,4.4L94.7,99.6c-3.8-2.2-6.8-8-6.8-13V23.2L95.5,18.7z"/>
	<path class="st3" d="M89.6,93.6c-1.1-2.2-1.7-4.6-1.7-7V23.2l7.6-4.4v63.4c0.1,2.4,0.6,4.8,1.7,7L89.6,93.6z"/>
	<path class="st1" d="M114.6,112.1c-0.2,0-0.3,0-0.5-0.1l-19.9-11.5c-4.1-2.4-7.3-8.5-7.3-13.9V23.2c0-0.4,0.2-0.7,0.5-0.9l7.6-4.4
		c0.5-0.3,1.1-0.1,1.4,0.4c0.1,0.2,0.1,0.3,0.1,0.5v63.4c0,4.7,2.8,10.2,6.3,12.2l19.9,11.5c0.5,0.3,0.6,0.9,0.4,1.4
		c-0.1,0.2-0.2,0.3-0.4,0.4l-7.6,4.4C115,112.1,114.8,112.1,114.6,112.1z M88.9,23.7v62.8c0,4.7,2.8,10.2,6.3,12.2l19.4,11.2
		l5.6-3.3L101.8,96c-4.1-2.4-7.3-8.5-7.3-13.9V20.5L88.9,23.7z"/>
	<path class="st4" d="M69.8,33.6V97c0,5,3.1,10.9,6.8,13l19.9,11.5l-7.6,4.4L69,114.4c-3.8-2.2-6.8-8-6.8-13V38.1L69.8,33.6z"/>
	<path class="st3" d="M63.8,108.5c-1.1-2.2-1.7-4.6-1.7-7V38.1l7.6-4.4v63.4c0.1,2.4,0.6,4.8,1.7,7L63.8,108.5z"/>
	<path class="st1" d="M88.8,127c-0.2,0-0.3,0-0.5-0.1l-19.9-11.5c-4.1-2.4-7.3-8.5-7.3-13.9V38.1c0-0.4,0.2-0.7,0.5-0.9l7.6-4.4
		c0.5-0.3,1.1-0.1,1.4,0.4c0.1,0.2,0.1,0.3,0.1,0.5v63.4c0,4.7,2.8,10.2,6.3,12.2l20,11.4c0.5,0.3,0.6,0.9,0.4,1.4
		c-0.1,0.2-0.2,0.3-0.4,0.4l-7.6,4.4C89.2,127,89,127,88.8,127z M63.1,38.6v62.8c0,4.7,2.8,10.2,6.3,12.2l19.4,11.2l5.6-3.3
		L76.1,111c-4.1-2.4-7.3-8.5-7.3-13.9V35.4L63.1,38.6z"/>
	<polygon class="st3" points="95.5,53.3 62.1,72.6 62.1,91.7 95.5,72.4 	"/>
	<path class="st0" d="M62.1,92.7c-0.6,0-1-0.4-1-1V72.6c0-0.4,0.2-0.7,0.5-0.9L95,52.5c0.5-0.3,1.1-0.1,1.4,0.4
		c0.1,0.2,0.1,0.3,0.1,0.5v19.1c0,0.4-0.2,0.7-0.5,0.9L62.6,92.6C62.5,92.7,62.3,92.7,62.1,92.7z M63.1,73.2V90l31.4-18.2V55.1
		L63.1,73.2z"/>
	<path class="st1" d="M88.8,127c-0.2,0-0.3,0-0.5-0.1l-19.9-11.5c-2.7-1.8-4.8-4.3-5.9-7.3c-0.1-0.3-0.2-0.6-0.3-0.9l-0.1-0.1
		c-0.1-0.3-0.2-0.5-0.3-0.8v-0.2c-0.1-0.3-0.2-0.5-0.2-0.8l-0.1-0.2c-0.1-0.3-0.1-0.5-0.2-0.7c0-0.1,0-0.2-0.1-0.3v-0.2
		c0-0.1,0-0.3-0.1-0.4s0-0.3-0.1-0.5v-0.2c0-0.1,0-0.2,0-0.3c0-0.3,0-0.7,0-1V38.1c0-0.4,0.2-0.7,0.5-0.9l7.6-4.4
		c0.5-0.3,1.1-0.1,1.4,0.4c0.1,0.2,0.1,0.3,0.1,0.5v32.9l16.1-9.3v-34c0-0.4,0.2-0.7,0.5-0.9l7.6-4.4c0.5-0.3,1.1-0.1,1.4,0.4
		c0.1,0.2,0.1,0.3,0.1,0.5v63.4c0,0.3,0,0.6,0,0.8v0.3c0,0.2,0,0.4,0.1,0.5c0,0.1,0,0.2,0.1,0.4l0.1,0.5c0,0.2,0.1,0.4,0.1,0.6
		l0.1,0.3c0.1,0.2,0.1,0.4,0.2,0.6l0.1,0.2c0.1,0.2,0.1,0.5,0.2,0.7v0.1c0.1,0.3,0.2,0.5,0.3,0.8c0.1,0.3,0.2,0.6,0.4,0.8
		c1,2.3,2.6,4.2,4.7,5.6l19.9,11.5c0.5,0.3,0.6,0.9,0.4,1.4c-0.1,0.2-0.2,0.3-0.4,0.4l-7.6,4.4c-0.3,0.2-0.7,0.2-1,0l-19.9-11.5
		c-2.4-1.6-4.3-3.8-5.5-6.5c-0.1-0.3-0.3-0.6-0.4-0.8c-0.1-0.3-0.2-0.6-0.3-0.9l-0.1-0.1c-0.1-0.3-0.2-0.5-0.3-0.8l-0.1-0.2
		c-0.1-0.3-0.2-0.5-0.2-0.8l-0.1-0.2c-0.1-0.3-0.1-0.5-0.2-0.7c0-0.1,0-0.2-0.1-0.3v-0.2c0-0.1,0-0.3-0.1-0.4s0-0.3-0.1-0.5v-0.2
		c0-0.1,0-0.2,0-0.3c0-0.3,0-0.7,0-1v-8l-16.1,9.3v9.2c0,0.3,0,0.6,0,0.8v0.4c0,0.2,0,0.4,0.1,0.5c0,0.1,0,0.2,0.1,0.4l0.1,0.5
		c0,0.2,0.1,0.4,0.1,0.6l0.1,0.3c0.1,0.2,0.1,0.4,0.2,0.6l0.1,0.2c0.1,0.2,0.1,0.5,0.2,0.7v0.1c0.1,0.2,0.2,0.5,0.3,0.7
		c0.1,0.3,0.2,0.6,0.4,0.8c1,2.3,2.6,4.2,4.7,5.6L97,120.7c0.5,0.3,0.6,0.9,0.4,1.4c-0.1,0.2-0.2,0.3-0.4,0.4l-7.6,4.4
		C89.2,127,89,127,88.8,127z M64.1,106.5c0.1,0.2,0.2,0.5,0.3,0.7c1,2.6,2.8,4.9,5.1,6.4l19.4,11.2l5.6-3.3L76.1,111
		c-2.4-1.6-4.3-3.8-5.5-6.5c-0.1-0.3-0.3-0.6-0.4-0.9s-0.2-0.6-0.3-0.9l-0.1-0.1c-0.1-0.2-0.2-0.5-0.3-0.8l-0.1-0.2
		c-0.1-0.3-0.1-0.5-0.2-0.7l-0.1-0.2c-0.1-0.3-0.1-0.5-0.2-0.7l0.1-0.4l1-0.4l-1,0.2c0-0.1-0.1-0.3-0.1-0.4c0-0.2,0-0.3-0.1-0.5
		v-0.2c0-0.1,0-0.2,0-0.3c0-0.3,0-0.7,0-1v-9.7c0-0.4,0.2-0.7,0.5-0.9L87.4,76c0.5-0.3,1.1-0.1,1.4,0.4c0.1,0.2,0.1,0.3,0.1,0.5v9.7
		c0,0.3,0,0.6,0,0.8l0,0v0.4c0,0.2,0,0.4,0.1,0.5s0,0.2,0.1,0.4l0.1,0.5c0,0.2,0.1,0.4,0.1,0.6l0.1,0.3c0.1,0.2,0.1,0.4,0.2,0.6
		l0.1,0.2c0.1,0.2,0.1,0.5,0.2,0.7v0.1c0.1,0.2,0.2,0.5,0.3,0.7c0.1,0.3,0.2,0.6,0.4,0.8c1,2.3,2.6,4.2,4.7,5.6l19.4,11.2l5.6-3.3
		l-18.4-10.6c-2.4-1.6-4.3-3.8-5.5-6.5c-0.1-0.3-0.3-0.6-0.4-0.8c-0.1-0.3-0.2-0.6-0.3-0.9l-0.1-0.1c-0.1-0.3-0.2-0.5-0.3-0.8
		l-0.1-0.2c-0.1-0.3-0.1-0.5-0.2-0.7l0-0.3c-0.1-0.3-0.1-0.5-0.2-0.7l-0.1-0.3l1-0.4l-1,0.2c0-0.1-0.1-0.3-0.1-0.4
		c0-0.2,0-0.3-0.1-0.5v-0.2c0-0.1,0-0.2,0-0.3c0-0.3,0-0.7,0-1V20.5l-5.7,3.3v34c0,0.4-0.2,0.7-0.5,0.9l-18,10.4
		c-0.5,0.3-1.1,0.1-1.4-0.4c-0.1-0.2-0.1-0.3-0.1-0.5V35.4l-5.6,3.3v62.8c0,0.3,0,0.6,0,0.8v0.4c0,0.2,0,0.4,0.1,0.5s0,0.2,0.1,0.4
		l0.1,0.5c0,0.2,0.1,0.4,0.1,0.6l0.1,0.3c0.1,0.2,0.1,0.4,0.2,0.6l0.1,0.2C64.1,106,64.1,106.3,64.1,106.5l-0.8,0.5L64.1,106.5z"/>
	<rect x="1" y="1" class="st5" width="126" height="126"/>
	<g>
		<rect class="st5" width="128" height="128"/>
	</g>
</g>
</svg>
